<?xml version="1.0" encoding="utf-8"?>

<!DOCTYPE svg PUBLIC "-//W3C//DTD SVG 1.1//EN" "http://www.w3.org/Graphics/SVG/1.1/DTD/svg11.dtd">
<svg version="1.1" id="Layer_1" xmlns="http://www.w3.org/2000/svg" xmlns:xlink="http://www.w3.org/1999/xlink" x="0px" y="0px"
	 viewBox="0 0 1464.108 1688.735" preserveAspectRatio="none" enable-background="new 0 0 1464.108 1688.735" xml:space="preserve" fill="#fff">
<g>
	<g>
		<g>
			<path d="M171.551,1412.578c-6.416-6.888-12.025-13.942-16.75-21.096c9.622,24.403,19.9,47.979,30.813,70.644
				c4.838,7.621,10.507,15.145,16.946,22.502C191.585,1461.571,181.242,1437.526,171.551,1412.578z"/>
			<path d="M199.244,1437.568c-8.841-6.835-16.859-13.883-23.975-21.111c9.69,25.046,20.031,49.174,31.002,72.299
				c7.066,7.661,14.979,15.145,23.672,22.408C219.085,1487.684,208.846,1463.123,199.244,1437.568z"/>
			<path d="M236.014,1462.093c-11.414-6.636-21.996-13.534-31.679-20.68c9.57,25.644,19.772,50.28,30.591,73.824
				c9.437,7.54,19.718,14.83,30.779,21.846C255.207,1513.224,245.307,1488.198,236.014,1462.093z"/>
			<path d="M282.196,1485.538c-14.057-6.262-27.293-12.839-39.648-19.725c9.223,26.185,19.048,51.277,29.465,75.19
				c11.887,7.236,24.597,14.155,38.068,20.741C300.224,1537.558,290.928,1512.129,282.196,1485.538z"/>
			<path d="M337.789,1507.214c-16.664-5.689-32.547-11.752-47.591-18.184c8.62,26.66,17.797,52.146,27.529,76.378
				c14.334,6.732,29.445,13.081,45.274,19.038C354.087,1559.985,345.686,1534.217,337.789,1507.214z"/>
			<path d="M402.369,1526.389c-19.109-4.91-37.51-10.253-55.146-16.023c7.741,27.06,15.978,52.875,24.719,77.373
				c16.675,6.017,34.055,11.59,52.079,16.709C416.362,1579.767,409.15,1553.726,402.369,1526.389z"/>
			<path d="M475.03,1542.339c-21.25-3.931-41.906-8.349-61.903-13.249c6.584,27.382,13.586,53.458,21.023,78.17
				c18.796,5.094,38.193,9.687,58.128,13.771C486.173,1596.176,480.43,1569.93,475.03,1542.339z"/>
			<path d="M554.369,1554.397c-22.949-2.774-45.453-6.082-67.443-9.92c5.165,27.624,10.657,53.896,16.497,78.773
				c20.575,3.979,41.619,7.409,63.062,10.284C562.193,1608.556,558.162,1582.167,554.369,1554.397z"/>
			<path d="M638.528,1562.026c-24.084-1.481-47.904-3.531-71.384-6.146c3.526,27.791,7.275,54.196,11.267,79.19
				c21.902,2.706,44.112,4.827,66.558,6.359C642.687,1616.375,640.544,1589.902,638.528,1562.026z"/>
			<path d="M725.293,1564.868c-24.568-0.108-49.072-0.803-73.433-2.082c1.73,27.887,3.569,54.367,5.529,79.429
				c22.685,1.322,45.501,2.04,68.372,2.152C725.595,1619.285,725.439,1592.782,725.293,1564.868z"/>
			<path d="M812.248,1562.786c-24.362,1.279-48.865,1.974-73.433,2.082c-0.146,27.915-0.302,54.417-0.467,79.499
				c22.871-0.112,45.687-0.83,68.372-2.152C808.679,1617.153,810.518,1590.672,812.248,1562.786z"/>
			<path d="M896.963,1555.88c-23.48,2.615-47.299,4.665-71.384,6.146c-2.016,27.876-4.158,54.349-6.441,79.403
				c22.446-1.532,44.656-3.653,66.558-6.359C889.688,1610.077,893.437,1583.672,896.963,1555.88z"/>
			<path d="M977.181,1544.477c-21.989,3.838-44.494,7.146-67.443,9.92c-3.792,27.77-7.824,54.159-12.116,79.137
				c21.443-2.875,42.486-6.305,63.062-10.284C966.524,1598.373,972.016,1572.101,977.181,1544.477z"/>
			<path d="M1050.981,1529.089c-19.997,4.901-40.653,9.318-61.903,13.249c-5.4,27.592-11.143,53.838-17.249,78.692
				c19.935-4.084,39.332-8.677,58.128-13.771C1037.395,1582.548,1044.397,1556.471,1050.981,1529.089z"/>
			<path d="M1116.884,1510.367c-17.635,5.77-36.037,11.112-55.146,16.023c-6.781,27.337-13.993,53.378-21.653,78.06
				c18.024-5.12,35.404-10.693,52.079-16.709C1100.906,1563.242,1109.143,1537.427,1116.884,1510.367z"/>
			<path d="M1173.909,1489.03c-15.044,6.432-30.927,12.494-47.591,18.184c-7.896,27.003-16.298,52.772-25.212,77.232
				c15.829-5.957,30.94-12.306,45.274-19.038C1156.112,1541.176,1165.289,1515.69,1173.909,1489.03z"/>
			<path d="M1221.559,1465.813c-12.355,6.886-25.591,13.464-39.648,19.725c-8.732,26.591-18.027,52.021-27.885,76.206
				c13.471-6.586,26.18-13.505,38.068-20.741C1202.511,1517.09,1212.336,1491.998,1221.559,1465.813z"/>
			<path d="M1259.773,1441.413c-9.683,7.146-20.265,14.044-31.679,20.68c-9.293,26.105-19.194,51.131-29.691,74.99
				c11.061-7.016,21.342-14.306,30.779-21.846C1240.001,1491.693,1250.203,1467.057,1259.773,1441.413z"/>
			<path d="M1288.839,1416.458c-7.117,7.228-15.134,14.276-23.975,21.111c-9.602,25.554-19.841,50.116-30.698,73.597
				c8.693-7.264,16.606-14.747,23.672-22.408C1268.808,1465.631,1279.149,1441.504,1288.839,1416.458z"/>
			<path d="M1309.307,1391.482c-4.725,7.154-10.334,14.208-16.75,21.096c-9.691,24.949-20.034,48.994-31.009,72.051
				c6.439-7.357,12.108-14.881,16.946-22.502C1289.407,1439.46,1299.685,1415.885,1309.307,1391.482z"/>
			<path d="M138.473,1315.448c-6.334-6.013-11.836-12.192-16.402-18.481c8.11,26.859,16.948,53.001,26.497,78.344
				c4.697,7.023,10.29,13.946,16.695,20.702C155.614,1370.003,146.679,1343.12,138.473,1315.448z"/>
			<path d="M166.332,1337.447c-8.942-6.004-17.024-12.204-24.16-18.591c8.212,27.819,17.153,54.837,26.807,80.966
				c7.123,7.103,15.156,14.025,24.021,20.737C183.401,1393.789,174.507,1366.056,166.332,1337.447z"/>
			<path d="M204.024,1359.147c-11.74-5.865-22.6-11.965-32.512-18.305c8.155,28.751,17.025,56.612,26.598,83.497
				c9.729,7.028,20.367,13.81,31.848,20.334C220.627,1417.184,211.98,1388.646,204.024,1359.147z"/>
			<path d="M252.01,1379.995c-14.643-5.566-28.406-11.413-41.232-17.548c7.902,29.632,16.491,58.289,25.758,85.883
				c12.447,6.779,25.786,13.251,39.957,19.413C267.687,1439.597,259.525,1410.319,252.01,1379.995z"/>
			<path d="M310.377,1399.362c-17.533-5.084-34.217-10.5-50-16.253c7.425,30.444,15.489,59.83,24.189,88.073
				c15.186,6.337,31.223,12.308,48.054,17.912C324.62,1460.359,317.207,1430.422,310.377,1399.362z"/>
			<path d="M378.736,1416.569c-20.263-4.408-39.75-9.201-58.405-14.382c6.701,31.165,13.974,61.196,21.822,90.015
				c17.829,5.689,36.438,10.955,55.766,15.796C391.019,1478.759,384.627,1448.259,378.736,1416.569z"/>
			<path d="M456.143,1430.933c-22.671-3.542-44.683-7.521-65.975-11.936c5.724,31.778,11.933,62.355,18.637,91.664
				c20.242,4.835,41.154,9.193,62.673,13.071C465.961,1494.084,460.853,1463.132,456.143,1430.933z"/>
			<path d="M541.07,1441.825c-24.592-2.507-48.687-5.495-72.215-8.963c4.507,32.266,9.395,63.278,14.675,92.979
				c22.279,3.789,45.083,7.054,68.342,9.792C547.984,1505.684,544.387,1474.399,541.07,1441.825z"/>
			<path d="M631.447,1448.731c-25.881-1.341-51.464-3.196-76.673-5.564c3.086,32.62,6.431,63.945,10.047,93.931
				c23.805,2.582,47.956,4.606,72.378,6.069C635.129,1513.028,633.214,1481.538,631.447,1448.731z"/>
			<path d="M724.779,1451.306c-26.434-0.098-52.794-0.727-78.998-1.887c1.516,32.83,3.16,64.341,4.938,94.498
				c24.707,1.263,49.56,1.949,74.478,2.056C725.046,1515.765,724.907,1484.199,724.779,1451.306z"/>
			<path d="M818.327,1449.419c-26.204,1.159-52.564,1.789-78.998,1.887c-0.128,32.893-0.267,64.459-0.418,94.667
				c24.918-0.107,49.77-0.793,74.478-2.056C815.166,1513.76,816.81,1482.249,818.327,1449.419z"/>
			<path d="M909.334,1443.167c-25.209,2.367-50.792,4.223-76.673,5.564c-1.767,32.807-3.681,64.297-5.752,94.436
				c24.422-1.463,48.573-3.486,72.378-6.069C902.902,1507.112,906.248,1475.787,909.334,1443.167z"/>
			<path d="M995.253,1432.862c-23.529,3.468-47.623,6.456-72.215,8.963c-3.317,32.574-6.914,63.859-10.801,93.808
				c23.259-2.738,46.063-6.003,68.342-9.792C985.859,1496.14,990.746,1465.129,995.253,1432.862z"/>
			<path d="M1073.94,1418.997c-21.292,4.415-43.304,8.394-65.975,11.936c-4.71,32.199-9.818,63.151-15.336,92.799
				c21.519-3.878,42.431-8.236,62.673-13.071C1062.007,1481.352,1068.216,1450.775,1073.94,1418.997z"/>
			<path d="M1143.777,1402.187c-18.656,5.181-38.142,9.974-58.405,14.382c-5.891,31.691-12.283,62.19-19.183,91.429
				c19.328-4.841,37.937-10.107,55.766-15.796C1129.803,1463.383,1137.076,1433.352,1143.777,1402.187z"/>
			<path d="M1203.731,1383.109c-15.783,5.753-32.467,11.169-50,16.253c-6.829,31.06-14.243,60.997-22.243,89.733
				c16.831-5.604,32.868-11.576,48.054-17.912C1188.242,1442.939,1196.306,1413.553,1203.731,1383.109z"/>
			<path d="M1253.33,1362.448c-12.827,6.135-26.589,11.982-41.232,17.548c-7.515,30.323-15.677,59.601-24.483,87.749
				c14.172-6.162,27.51-12.634,39.957-19.413C1236.839,1420.737,1245.428,1392.08,1253.33,1362.448z"/>
			<path d="M1292.595,1340.841c-9.912,6.34-20.771,12.44-32.512,18.305c-7.955,29.5-16.603,58.037-25.933,85.525
				c11.48-6.524,22.119-13.305,31.848-20.334C1275.571,1397.453,1284.441,1369.592,1292.595,1340.841z"/>
			<path d="M1321.936,1318.856c-7.136,6.386-15.218,12.587-24.16,18.591c-8.175,28.609-17.069,56.343-26.669,83.113
				c8.865-6.712,16.898-13.634,24.021-20.737C1304.783,1373.693,1313.724,1346.676,1321.936,1318.856z"/>
			<path d="M1342.037,1296.967c-4.567,6.29-10.068,12.468-16.402,18.481c-8.206,27.672-17.141,54.555-26.79,80.565
				c6.406-6.756,11.998-13.679,16.695-20.702C1325.089,1349.967,1333.927,1323.825,1342.037,1296.967z"/>
			<path d="M111.401,1209.207c-6.212-4.831-11.592-9.818-16.011-14.94c6.368,28.93,13.526,57.28,21.463,84.967
				c4.538,6.103,10.018,12.092,16.333,17.916C125.135,1268.537,117.869,1239.193,111.401,1209.207z"/>
			<path d="M139.268,1227.06c-8.973-4.854-17.068-9.879-24.203-15.092c6.477,30.179,13.753,59.705,21.814,88.487
				c7.136,6.201,15.224,12.215,24.176,18.036C153.007,1288.795,145.741,1258.287,139.268,1227.06z"/>
			<path d="M177.596,1244.744c-11.964-4.771-23.013-9.737-33.093-14.923c6.461,31.417,13.713,62.103,21.745,91.965
				c9.946,6.159,20.845,12.082,32.633,17.774C191.022,1308.815,183.924,1277.179,177.596,1244.744z"/>
			<path d="M226.96,1261.806c-15.091-4.551-29.253-9.333-42.448-14.365c6.29,32.616,13.344,64.422,21.155,95.325
				c12.9,5.964,26.742,11.644,41.476,17.052C239.693,1328.084,232.964,1295.383,226.96,1261.806z"/>
			<path d="M287.534,1277.717c-18.225-4.176-35.545-8.624-51.921-13.357c5.936,33.746,12.588,66.605,19.953,98.486
				c15.9,5.596,32.709,10.862,50.379,15.806C299.15,1346.014,293.013,1312.34,287.534,1277.717z"/>
			<path d="M358.97,1291.904c-21.204-3.635-41.574-7.586-61.062-11.861c5.379,34.774,11.404,68.589,18.074,101.357
				c18.818,5.042,38.478,9.707,58.925,13.996C369.025,1361.968,363.714,1327.443,358.97,1291.904z"/>
			<path d="M440.297,1303.784c-23.847-2.93-46.979-6.221-69.342-9.874c4.612,35.668,9.774,70.311,15.491,103.85
				c21.5,4.299,43.73,8.174,66.63,11.622C448.36,1375.302,444.102,1340.078,440.297,1303.784z"/>
			<path d="M529.886,1312.815c-25.965-2.079-51.386-4.557-76.2-7.432c3.643,36.395,7.719,71.713,12.233,105.88
				c23.778,3.379,48.13,6.29,72.988,8.732C535.578,1385.424,532.573,1349.676,529.886,1312.815z"/>
			<path d="M625.484,1318.55c-27.391-1.114-54.455-2.655-81.116-4.622c2.5,36.931,5.296,72.743,8.394,107.373
				c25.49,2.307,51.359,4.115,77.533,5.422C628.519,1391.845,626.917,1355.768,625.484,1318.55z"/>
			<path d="M724.346,1320.691c-28.007-0.082-55.929-0.605-83.685-1.569c1.23,37.253,2.606,73.364,4.131,108.272
				c26.504,1.13,53.165,1.743,79.904,1.839C724.566,1394.241,724.45,1358.041,724.346,1320.691z"/>
			<path d="M823.447,1319.122c-27.756,0.964-55.678,1.487-83.685,1.569c-0.104,37.35-0.22,73.55-0.349,108.542
				c26.738-0.096,53.4-0.709,79.904-1.839C820.841,1392.486,822.216,1356.375,823.447,1319.122z"/>
			<path d="M919.74,1313.928c-26.661,1.967-53.724,3.507-81.116,4.622c-1.433,37.218-3.035,73.295-4.811,108.173
				c26.173-1.307,52.043-3.115,77.533-5.422C914.444,1386.671,917.24,1350.859,919.74,1313.928z"/>
			<path d="M1010.421,1305.382c-24.813,2.876-50.235,5.353-76.2,7.432c-2.687,36.861-5.692,72.609-9.021,107.179
				c24.858-2.442,49.21-5.353,72.988-8.732C1002.703,1377.095,1006.779,1341.777,1010.421,1305.382z"/>
			<path d="M1093.152,1293.91c-22.363,3.653-45.495,6.944-69.342,9.874c-3.805,36.295-8.063,71.519-12.779,105.599
				c22.9-3.449,45.13-7.323,66.63-11.622C1083.378,1364.221,1088.541,1329.577,1093.152,1293.91z"/>
			<path d="M1166.2,1280.043c-19.489,4.275-39.858,8.226-61.062,11.861c-4.744,35.539-10.055,70.064-15.937,103.492
				c20.447-4.29,40.106-8.954,58.925-13.996C1154.797,1348.631,1160.821,1314.817,1166.2,1280.043z"/>
			<path d="M1228.495,1264.36c-16.376,4.733-33.696,9.181-51.921,13.357c-5.479,34.623-11.616,68.297-18.411,100.935
				c17.67-4.944,34.479-10.21,50.379-15.806C1215.906,1330.965,1222.559,1298.106,1228.495,1264.36z"/>
			<path d="M1279.596,1247.441c-13.194,5.032-27.357,9.814-42.448,14.365c-6.004,33.577-12.733,66.278-20.183,98.013
				c14.733-5.408,28.576-11.089,41.476-17.052C1266.251,1311.863,1273.306,1280.057,1279.596,1247.441z"/>
			<path d="M1319.605,1229.821c-10.081,5.187-21.13,10.153-33.093,14.923c-6.328,32.434-13.425,64.07-21.284,94.816
				c11.787-5.693,22.686-11.615,32.633-17.774C1305.891,1291.924,1313.143,1261.238,1319.605,1229.821z"/>
			<path d="M1349.042,1211.968c-7.135,5.213-15.23,10.237-24.203,15.092c-6.473,31.227-13.739,61.735-21.788,91.432
				c8.952-5.821,17.039-11.836,24.176-18.036C1335.29,1271.673,1342.565,1242.147,1349.042,1211.968z"/>
			<path d="M1368.718,1194.268c-4.42,5.122-9.799,10.109-16.011,14.94c-6.468,29.986-13.733,59.329-21.785,87.943
				c6.315-5.824,11.795-11.813,16.333-17.916C1355.191,1251.547,1362.35,1223.197,1368.718,1194.268z"/>
			<path d="M91.178,1095.623c-6.073-3.399-11.335-6.922-15.657-10.609c4.433,30.524,9.706,60.628,15.812,90.226
				c4.397,4.885,9.755,9.629,15.943,14.221C101.063,1158.71,95.694,1127.4,91.178,1095.623z"/>
			<path d="M118.976,1108.338c-8.957-3.441-17.033-7.008-24.171-10.752c4.524,32.009,9.904,63.54,16.129,94.503
				c7.134,4.972,15.228,9.755,24.201,14.375C128.9,1174.348,123.51,1141.607,118.976,1108.338z"/>
			<path d="M157.708,1120.974c-12.1-3.401-23.266-6.943-33.468-10.666c4.529,33.499,9.911,66.46,16.137,98.787
				c10.106,4.947,21.18,9.679,33.174,14.224C167.439,1189.861,162.156,1155.713,157.708,1120.974z"/>
			<path d="M208.041,1133.203c-15.402-3.259-29.845-6.683-43.307-10.298c4.424,34.962,9.678,69.324,15.755,102.986
				c13.249,4.801,27.471,9.361,42.627,13.7C217.303,1204.847,212.276,1169.352,208.041,1133.203z"/>
			<path d="M270.225,1144.641c-18.728-3.001-36.511-6.197-53.325-9.604c4.189,36.359,9.161,72.056,14.912,106.991
				c16.466,4.517,33.881,8.762,52.21,12.746C278.702,1218.842,274.102,1182.098,270.225,1144.641z"/>
			<path d="M343.947,1154.867c-21.904-2.62-42.929-5.468-63.039-8.552c3.808,37.648,8.326,74.573,13.55,110.679
				c19.615,4.082,40.119,7.855,61.466,11.325C351.307,1231.334,347.314,1193.484,343.947,1154.867z"/>
			<path d="M428.225,1163.45c-24.732-2.118-48.707-4.495-71.877-7.135c3.274,38.781,7.157,76.786,11.647,113.921
				c22.527,3.49,45.831,6.633,69.857,9.432C434.14,1241.805,430.932,1203.035,428.225,1163.45z"/>
			<path d="M521.349,1169.987c-27.007-1.505-53.435-3.299-79.223-5.381c2.593,39.715,5.665,78.608,9.219,116.589
				c25.011,2.748,50.637,5.116,76.813,7.103C525.533,1249.77,523.264,1210.305,521.349,1169.987z"/>
			<path d="M620.926,1174.144c-28.544-0.808-56.736-1.925-84.503-3.35c1.782,40.408,3.894,79.959,6.337,118.568
				c26.885,1.88,54.177,3.353,81.802,4.418C623.16,1254.832,621.949,1214.926,620.926,1174.144z"/>
			<path d="M724.015,1175.697c-29.209-0.059-58.325-0.439-87.267-1.138c0.878,40.828,1.918,80.778,3.122,119.767
				c27.996,0.922,56.16,1.422,84.41,1.5C724.177,1256.722,724.089,1216.652,724.015,1175.697z"/>
			<path d="M827.36,1174.559c-28.942,0.699-58.058,1.079-87.267,1.138c-0.074,40.954-0.162,81.025-0.264,120.129
				c28.25-0.078,56.414-0.578,84.41-1.5C825.442,1255.337,826.482,1215.387,827.36,1174.559z"/>
			<path d="M927.685,1170.794c-27.767,1.426-55.96,2.542-84.503,3.35c-1.023,40.781-2.234,80.688-3.635,119.635
				c27.625-1.065,54.917-2.538,81.802-4.418C923.791,1250.753,925.902,1211.202,927.685,1170.794z"/>
			<path d="M1021.982,1164.606c-25.788,2.082-52.217,3.875-79.223,5.381c-1.915,40.318-4.184,79.783-6.809,118.31
				c26.176-1.987,51.802-4.354,76.813-7.103C1016.317,1243.214,1019.389,1204.321,1021.982,1164.606z"/>
			<path d="M1107.76,1156.315c-23.17,2.641-47.145,5.018-71.877,7.135c-2.707,39.585-5.916,78.354-9.627,116.218
				c24.027-2.799,47.33-5.942,69.857-9.432C1100.603,1233.101,1104.485,1195.096,1107.76,1156.315z"/>
			<path d="M1183.2,1146.315c-20.11,3.084-41.135,5.931-63.04,8.552c-3.367,38.618-7.359,76.467-11.977,113.453
				c21.347-3.471,41.851-7.243,61.466-11.325C1174.874,1220.889,1179.392,1183.963,1183.2,1146.315z"/>
			<path d="M1247.208,1135.037c-16.813,3.407-34.596,6.603-53.324,9.604c-3.878,37.457-8.477,74.201-13.797,110.133
				c18.328-3.985,35.744-8.229,52.209-12.746C1238.046,1207.093,1243.018,1171.396,1247.208,1135.037z"/>
			<path d="M1299.373,1122.904c-13.462,3.615-27.904,7.04-43.307,10.298c-4.235,36.149-9.262,71.645-15.075,106.388
				c15.156-4.34,29.377-8.899,42.626-13.7C1289.695,1192.228,1294.949,1157.866,1299.373,1122.904z"/>
			<path d="M1339.868,1110.308c-10.202,3.722-21.368,7.265-33.468,10.666c-4.449,34.739-9.732,68.887-15.843,102.345
				c11.994-4.545,23.068-9.277,33.174-14.224C1329.957,1176.769,1335.339,1143.807,1339.868,1110.308z"/>
			<path d="M1369.303,1097.586c-7.138,3.743-15.214,7.31-24.171,10.752c-4.535,33.269-9.924,66.01-16.159,98.126
				c8.973-4.62,17.066-9.403,24.2-14.375C1359.399,1161.127,1364.779,1129.595,1369.303,1097.586z"/>
			<path d="M1388.586,1085.013c-4.322,3.688-9.584,7.211-15.657,10.609c-4.515,31.778-9.885,63.087-16.099,93.838
				c6.188-4.592,11.546-9.336,15.943-14.221C1378.88,1145.641,1384.154,1115.537,1388.586,1085.013z"/>
			<path d="M78.466,976.831c-5.948-1.806-11.103-3.676-15.407-5.7c2.355,31.564,5.586,62.887,9.687,93.881
				c4.313,3.407,9.555,6.647,15.603,9.771C84.166,1042.466,80.869,1009.784,78.466,976.831z"/>
			<path d="M106.186,983.674c-8.924-1.844-16.968-3.755-24.123-5.787c2.409,33.21,5.713,66.143,9.906,98.705
				c7.14,3.454,15.211,6.738,24.162,9.906C111.922,1052.598,108.606,1018.291,106.186,983.674z"/>
			<path d="M145.14,990.489c-12.17-1.83-23.395-3.738-33.676-5.753c2.417,34.874,5.731,69.433,9.935,103.577
				c10.219,3.433,21.399,6.698,33.516,9.831C150.779,1062.676,147.519,1026.757,145.14,990.489z"/>
			<path d="M196.056,997.096c-15.588-1.759-30.197-3.608-43.824-5.565c2.367,36.52,5.61,72.686,9.725,108.393
				c13.499,3.335,27.979,6.492,43.423,9.497C201.435,1072.438,198.326,1034.961,196.056,997.096z"/>
			<path d="M259.234,1003.288c-19.038-1.624-37.107-3.354-54.192-5.2c2.246,38.104,5.322,75.815,9.226,113.024
				c16.874,3.143,34.721,6.092,53.519,8.86C264.168,1081.576,261.317,1042.646,259.234,1003.288z"/>
			<path d="M334.389,1008.834c-22.343-1.421-43.778-2.965-64.279-4.638c2.046,39.576,4.848,78.719,8.402,117.322
				c20.197,2.846,41.314,5.474,63.316,7.892C338.681,1089.752,336.201,1049.525,334.389,1008.834z"/>
			<path d="M420.53,1013.495c-25.292-1.15-49.799-2.441-73.479-3.876c1.763,40.88,4.175,81.291,7.236,121.126
				c23.283,2.438,47.376,4.632,72.233,6.587C423.985,1096.619,421.989,1055.305,420.53,1013.495z"/>
			<path d="M515.901,1017.05c-27.669-0.819-54.737-1.794-81.145-2.926c1.398,41.96,3.31,83.42,5.737,124.277
				c25.926,1.923,52.496,3.579,79.649,4.969C518.348,1101.851,516.934,1059.71,515.901,1017.05z"/>
			<path d="M618.015,1019.312c-29.279-0.44-58.19-1.047-86.664-1.823c0.962,42.766,2.278,85.008,3.948,126.626
				c27.924,1.317,56.276,2.348,84.982,3.094C619.323,1105.18,618.567,1062.514,618.015,1019.312z"/>
			<path d="M723.803,1020.158c-29.977-0.032-59.855-0.239-89.556-0.62c0.474,43.255,1.123,85.974,1.946,128.054
				c29.11,0.646,58.395,0.996,87.774,1.051C723.898,1106.423,723.843,1063.561,723.803,1020.158z"/>
			<path d="M829.86,1019.538c-29.7,0.381-59.578,0.587-89.556,0.62c-0.04,43.403-0.095,86.266-0.165,128.486
				c29.379-0.055,58.664-0.405,87.774-1.051C828.737,1105.512,829.386,1062.794,829.86,1019.538z"/>
			<path d="M932.756,1017.489c-28.473,0.776-57.385,1.384-86.664,1.823c-0.552,43.201-1.308,85.867-2.266,127.897
				c28.706-0.746,57.058-1.777,84.982-3.094C930.478,1102.497,931.794,1060.255,932.756,1017.489z"/>
			<path d="M1029.352,1014.124c-26.408,1.132-53.476,2.107-81.145,2.926c-1.034,42.66-2.447,84.801-4.242,126.32
				c27.154-1.39,53.724-3.046,79.649-4.969C1026.042,1097.544,1027.954,1056.084,1029.352,1014.124z"/>
			<path d="M1117.057,1009.62c-23.68,1.435-48.187,2.725-73.479,3.876c-1.459,41.809-3.456,83.124-5.99,123.838
				c24.857-1.955,48.95-4.149,72.233-6.587C1112.882,1090.911,1115.295,1050.5,1117.057,1009.62z"/>
			<path d="M1193.998,1004.196c-20.501,1.673-41.936,3.217-64.279,4.638c-1.812,40.691-4.292,80.918-7.439,120.576
				c22.002-2.418,43.118-5.046,63.316-7.892C1189.15,1082.915,1191.952,1043.772,1193.998,1004.196z"/>
			<path d="M1259.066,998.088c-17.086,1.846-35.154,3.576-54.192,5.2c-2.083,39.358-4.934,78.288-8.552,116.684
				c18.798-2.768,36.645-5.717,53.519-8.86C1253.744,1073.903,1256.82,1036.193,1259.066,998.088z"/>
			<path d="M1311.876,991.531c-13.628,1.957-28.237,3.806-43.824,5.565c-2.27,37.865-5.379,75.342-9.324,112.325
				c15.444-3.004,29.925-6.162,43.423-9.497C1306.266,1064.217,1309.509,1028.051,1311.876,991.531z"/>
			<path d="M1352.644,984.736c-10.281,2.015-21.506,3.922-33.676,5.753c-2.379,36.268-5.639,72.188-9.775,107.656
				c12.117-3.133,23.297-6.398,33.516-9.831C1346.913,1054.169,1350.227,1019.61,1352.644,984.736z"/>
			<path d="M1382.044,977.887c-7.155,2.032-15.199,3.944-24.123,5.787c-2.419,34.616-5.736,68.924-9.945,102.823
				c8.951-3.168,17.022-6.452,24.162-9.906C1376.331,1044.03,1379.635,1011.097,1382.044,977.887z"/>
			<path d="M1401.049,971.131c-4.304,2.024-9.459,3.894-15.407,5.7c-2.403,32.953-5.7,65.635-9.883,97.952
				c6.048-3.124,11.29-6.363,15.603-9.771C1395.463,1034.018,1398.694,1002.696,1401.049,971.131z"/>
			<path d="M73.694,855.243c-5.888-0.148-10.982-0.301-15.308-0.471c0.195,32,1.283,63.948,3.263,95.755
				c4.308,1.705,9.447,3.27,15.377,4.784C75.005,922.078,73.893,888.691,73.694,855.243z"/>
			<path d="M101.379,855.809c-8.906-0.152-16.931-0.31-24.099-0.479c0.2,33.716,1.314,67.37,3.341,100.866
				c7.158,1.708,15.197,3.312,24.116,4.859C102.699,926.112,101.579,890.996,101.379,855.809z"/>
			<path d="M140.409,856.374c-12.193-0.151-23.437-0.309-33.749-0.476c0.201,35.457,1.32,70.841,3.355,106.049
				c10.29,1.693,21.522,3.294,33.699,4.83C141.709,930.13,140.607,893.293,140.409,856.374z"/>
			<path d="M191.539,856.921c-15.655-0.146-30.324-0.299-44.014-0.461c0.197,37.185,1.293,74.284,3.288,111.192
				c13.646,1.644,28.274,3.197,43.882,4.674C192.78,934.027,191.728,895.522,191.539,856.921z"/>
			<path d="M255.086,857.434c-19.153-0.135-37.328-0.278-54.515-0.431c0.187,38.853,1.228,77.609,3.123,116.157
				c17.117,1.551,35.217,3.004,54.29,4.368C256.226,937.68,255.259,897.611,255.086,857.434z"/>
			<path d="M330.777,857.895c-22.507-0.118-44.096-0.246-64.743-0.385c0.17,40.408,1.12,80.706,2.848,120.781
				c20.545,1.406,42.027,2.703,64.419,3.897C331.769,940.952,330.928,899.484,330.777,857.895z"/>
			<path d="M417.62,858.282c-25.503-0.096-50.21-0.203-74.082-0.322c0.147,41.789,0.965,83.456,2.455,124.888
				c23.738,1.206,48.306,2.29,73.661,3.257C418.419,943.704,417.741,901.058,417.62,858.282z"/>
			<path d="M513.839,858.577c-27.919-0.068-55.229-0.149-81.87-0.243c0.117,42.937,0.766,85.741,1.948,128.299
				c26.478,0.952,53.619,1.771,81.363,2.459C514.405,945.802,513.925,902.26,513.839,858.577z"/>
			<path d="M616.913,858.765c-29.557-0.036-58.741-0.087-87.481-0.151c0.08,43.795,0.527,87.448,1.341,130.848
				c28.554,0.652,57.547,1.163,86.91,1.533C617.216,947.138,616.959,903.024,616.913,858.765z"/>
			<path d="M723.723,858.835c-30.268-0.003-60.435-0.02-90.422-0.051c0.04,44.317,0.26,88.487,0.662,132.4
				c29.787,0.32,59.752,0.494,89.816,0.521C723.745,947.637,723.726,903.31,723.723,858.835z"/>
			<path d="M830.807,858.784c-29.987,0.032-60.154,0.049-90.422,0.051c-0.003,44.475-0.022,88.802-0.056,132.869
				c30.065-0.027,60.03-0.201,89.816-0.521C830.547,947.271,830.767,903.101,830.807,858.784z"/>
			<path d="M934.676,858.613c-28.74,0.065-57.924,0.115-87.481,0.151c-0.046,44.26-0.303,88.373-0.77,132.229
				c29.362-0.37,58.356-0.88,86.91-1.533C934.148,946.061,934.596,902.408,934.676,858.613z"/>
			<path d="M1032.139,858.334c-26.642,0.094-53.951,0.175-81.87,0.243c-0.086,43.683-0.567,87.225-1.441,130.515
				c27.745-0.688,54.885-1.508,81.363-2.459C1031.373,944.075,1032.023,901.271,1032.139,858.334z"/>
			<path d="M1120.57,857.96c-23.872,0.119-48.58,0.226-74.082,0.322c-0.122,42.777-0.8,85.422-2.034,127.823
				c25.355-0.967,49.923-2.051,73.661-3.257C1119.605,941.416,1120.424,899.749,1120.57,857.96z"/>
			<path d="M1198.074,857.51c-20.647,0.139-42.236,0.267-64.743,0.385c-0.151,41.589-0.992,83.058-2.523,124.293
				c22.392-1.194,43.874-2.491,64.419-3.897C1196.954,938.215,1197.903,897.918,1198.074,857.51z"/>
			<path d="M1263.537,857.003c-17.188,0.153-35.362,0.297-54.515,0.431c-0.173,40.177-1.14,80.246-2.898,120.094
				c19.073-1.364,37.173-2.817,54.29-4.368C1262.309,934.612,1263.35,895.856,1263.537,857.003z"/>
			<path d="M1316.583,856.46c-13.69,0.162-28.359,0.315-44.014,0.461c-0.189,38.601-1.241,77.106-3.156,115.406
				c15.608-1.477,30.235-3.03,43.882-4.674C1315.29,930.744,1316.386,893.644,1316.583,856.46z"/>
			<path d="M1357.448,855.897c-10.312,0.167-21.557,0.325-33.749,0.476c-0.198,36.919-1.3,73.756-3.305,110.404
				c12.177-1.536,23.408-3.138,33.699-4.83C1356.128,926.738,1357.247,891.354,1357.448,855.897z"/>
			<path d="M1386.828,855.33c-7.168,0.169-15.193,0.327-24.099,0.479c-0.201,35.187-1.321,70.302-3.358,105.246
				c8.919-1.547,16.958-3.151,24.116-4.859C1385.514,922.7,1386.628,889.046,1386.828,855.33z"/>
			<path d="M1405.722,854.772c-4.326,0.17-9.42,0.323-15.308,0.471c-0.199,33.448-1.311,66.835-3.333,100.067
				c5.93-1.513,11.07-3.078,15.377-4.784C1404.438,918.72,1405.527,886.772,1405.722,854.772z"/>
			<path d="M77.027,733.424c-5.931,1.513-11.07,3.078-15.377,4.784c-1.98,31.807-3.068,63.755-3.263,95.755
				c4.326-0.17,9.42-0.323,15.308-0.471C73.893,800.044,75.005,766.657,77.027,733.424z"/>
			<path d="M104.737,727.679c-8.919,1.547-16.958,3.151-24.116,4.859c-2.027,33.496-3.141,67.15-3.341,100.866
				c7.168-0.169,15.193-0.327,24.099-0.479C101.579,797.739,102.699,762.623,104.737,727.679z"/>
			<path d="M143.714,721.958c-12.177,1.536-23.408,3.138-33.699,4.83c-2.036,35.209-3.155,70.593-3.355,106.049
				c10.312-0.167,21.557-0.325,33.749-0.476C140.607,795.442,141.709,758.605,143.714,721.958z"/>
			<path d="M194.695,716.408c-15.608,1.477-30.235,3.03-43.882,4.674c-1.995,36.908-3.092,74.008-3.288,111.192
				c13.69-0.162,28.359-0.315,44.014-0.461C191.728,793.213,192.78,754.708,194.695,716.408z"/>
			<path d="M257.984,711.207c-19.073,1.364-37.174,2.817-54.29,4.368c-1.895,38.548-2.937,77.304-3.123,116.157
				c17.188-0.153,35.362-0.297,54.515-0.431C255.259,791.123,256.226,751.055,257.984,711.207z"/>
			<path d="M333.301,706.547c-22.392,1.194-43.874,2.491-64.419,3.897c-1.728,40.075-2.677,80.373-2.848,120.781
				c20.647-0.139,42.236-0.267,64.743-0.385C330.928,789.251,331.769,747.782,333.301,706.547z"/>
			<path d="M419.653,702.63c-25.355,0.967-49.923,2.051-73.661,3.257c-1.49,41.432-2.308,83.099-2.455,124.888
				c23.872-0.119,48.58-0.226,74.082-0.322C417.741,787.676,418.419,745.031,419.653,702.63z"/>
			<path d="M515.28,699.643c-27.744,0.688-54.885,1.508-81.363,2.459c-1.182,42.558-1.831,85.362-1.948,128.299
				c26.642-0.094,53.951-0.175,81.87-0.243C513.925,786.475,514.405,742.933,515.28,699.643z"/>
			<path d="M617.683,697.741c-29.362,0.37-58.356,0.88-86.91,1.533c-0.814,43.4-1.261,87.053-1.341,130.848
				c28.74-0.064,57.924-0.115,87.481-0.151C616.959,785.71,617.216,741.597,617.683,697.741z"/>
			<path d="M723.779,697.03c-30.065,0.027-60.03,0.201-89.816,0.521c-0.401,43.913-0.622,88.083-0.662,132.4
				c29.987-0.032,60.154-0.049,90.422-0.052C723.726,785.425,723.745,741.098,723.779,697.03z"/>
			<path d="M830.145,697.551c-29.787-0.32-59.752-0.494-89.816-0.521c0.034,44.068,0.053,88.394,0.056,132.869
				c30.268,0.003,60.435,0.02,90.422,0.052C830.767,785.634,830.547,741.464,830.145,697.551z"/>
			<path d="M933.334,699.273c-28.554-0.652-57.547-1.163-86.91-1.533c0.467,43.856,0.724,87.97,0.77,132.229
				c29.557,0.037,58.741,0.087,87.481,0.151C934.596,786.327,934.148,742.674,933.334,699.273z"/>
			<path d="M1030.191,702.102c-26.478-0.952-53.619-1.771-81.363-2.459c0.874,43.29,1.355,86.833,1.441,130.515
				c27.919,0.068,55.229,0.149,81.87,0.243C1032.023,787.464,1031.373,744.66,1030.191,702.102z"/>
			<path d="M1118.116,705.887c-23.738-1.206-48.306-2.29-73.661-3.257c1.234,42.401,1.912,85.046,2.034,127.823
				c25.503,0.095,50.21,0.203,74.082,0.322C1120.424,788.985,1119.605,747.318,1118.116,705.887z"/>
			<path d="M1195.226,710.444c-20.545-1.406-42.027-2.703-64.419-3.897c1.531,41.235,2.373,82.704,2.523,124.293
				c22.507,0.118,44.096,0.246,64.743,0.385C1197.903,790.817,1196.954,750.519,1195.226,710.444z"/>
			<path d="M1260.413,715.575c-17.116-1.551-35.217-3.004-54.29-4.368c1.758,39.848,2.725,79.917,2.898,120.094
				c19.154,0.135,37.328,0.278,54.515,0.431C1263.35,792.878,1262.309,754.122,1260.413,715.575z"/>
			<path d="M1313.294,721.082c-13.646-1.644-28.274-3.197-43.882-4.674c1.915,38.3,2.967,76.805,3.156,115.406
				c15.655,0.146,30.324,0.299,44.014,0.461C1316.386,795.09,1315.29,757.99,1313.294,721.082z"/>
			<path d="M1354.092,726.788c-10.29-1.693-21.522-3.294-33.699-4.83c2.005,36.647,3.107,73.484,3.305,110.404
				c12.193,0.151,23.437,0.309,33.749,0.476C1357.247,797.381,1356.128,761.997,1354.092,726.788z"/>
			<path d="M1383.487,732.538c-7.158-1.708-15.197-3.312-24.116-4.859c2.037,34.943,3.157,70.059,3.358,105.246
				c8.906,0.152,16.931,0.31,24.099,0.479C1386.628,799.688,1385.514,766.034,1383.487,732.538z"/>
			<path d="M1402.458,738.208c-4.308-1.705-9.447-3.27-15.377-4.784c2.022,33.232,3.134,66.62,3.333,100.067
				c5.888,0.148,10.982,0.301,15.308,0.471C1405.527,801.963,1404.438,770.015,1402.458,738.208z"/>
			<path d="M88.349,613.952c-6.048,3.124-11.29,6.363-15.603,9.771c-4.102,30.994-7.333,62.316-9.687,93.881
				c4.304-2.024,9.459-3.893,15.407-5.7C80.869,678.951,84.166,646.269,88.349,613.952z"/>
			<path d="M116.132,602.237c-8.951,3.168-17.022,6.452-24.162,9.906c-4.193,32.562-7.497,65.495-9.906,98.705
				c7.154-2.032,15.199-3.944,24.123-5.788C108.606,670.444,111.922,636.137,116.132,602.237z"/>
			<path d="M154.915,590.59c-12.117,3.133-23.297,6.398-33.516,9.831c-4.205,34.144-7.518,68.703-9.935,103.577
				c10.281-2.015,21.506-3.922,33.676-5.753C147.519,661.978,150.779,626.058,154.915,590.59z"/>
			<path d="M205.38,579.314c-15.444,3.004-29.925,6.162-43.423,9.497c-4.115,35.707-7.358,71.873-9.725,108.393
				c13.628-1.957,28.237-3.806,43.824-5.565C198.326,653.773,201.435,616.296,205.38,579.314z"/>
			<path d="M267.786,568.762c-18.798,2.768-36.645,5.716-53.519,8.86c-3.903,37.209-6.98,74.92-9.226,113.024
				c17.086-1.846,35.154-3.576,54.192-5.2C261.317,646.089,264.168,607.158,267.786,568.762z"/>
			<path d="M341.828,559.325c-22.002,2.418-43.118,5.046-63.316,7.892c-3.555,38.603-6.356,77.746-8.402,117.322
				c20.501-1.673,41.936-3.217,64.279-4.638C336.201,639.21,338.681,598.982,341.828,559.325z"/>
			<path d="M426.519,551.401c-24.857,1.955-48.95,4.149-72.233,6.587c-3.061,39.836-5.473,80.247-7.236,121.126
				c23.68-1.434,48.187-2.725,73.479-3.876C421.989,633.43,423.985,592.116,426.519,551.401z"/>
			<path d="M520.142,545.365c-27.154,1.39-53.724,3.046-79.649,4.969c-2.427,40.857-4.339,82.317-5.737,124.277
				c26.408-1.132,53.476-2.107,81.145-2.926C516.934,629.024,518.348,586.883,520.142,545.365z"/>
			<path d="M620.281,541.525c-28.706,0.746-57.058,1.778-84.982,3.094c-1.67,41.618-2.986,83.861-3.948,126.626
				c28.473-0.776,57.385-1.384,86.664-1.823C618.567,626.221,619.323,583.555,620.281,541.525z"/>
			<path d="M723.968,540.091c-29.379,0.055-58.664,0.405-87.774,1.051c-0.823,42.081-1.472,84.799-1.946,128.054
				c29.7-0.381,59.578-0.587,89.556-0.62C723.843,625.173,723.898,582.311,723.968,540.091z"/>
			<path d="M827.914,541.142c-29.11-0.646-58.395-0.996-87.774-1.051c0.07,42.22,0.125,85.082,0.165,128.486
				c29.977,0.032,59.855,0.239,89.556,0.62C829.386,625.941,828.737,583.223,827.914,541.142z"/>
			<path d="M928.808,544.62c-27.924-1.317-56.276-2.348-84.982-3.094c0.959,42.03,1.714,84.696,2.266,127.897
				c29.279,0.44,58.19,1.047,86.664,1.823C931.794,628.48,930.478,586.237,928.808,544.62z"/>
			<path d="M1023.615,550.334c-25.926-1.923-52.496-3.579-79.649-4.969c1.794,41.519,3.208,83.659,4.242,126.32
				c27.669,0.819,54.737,1.794,81.145,2.926C1027.954,632.651,1026.042,591.19,1023.615,550.334z"/>
			<path d="M1109.821,557.988c-23.283-2.438-47.376-4.632-72.233-6.587c2.534,40.714,4.53,82.029,5.99,123.838
				c25.292,1.15,49.799,2.441,73.479,3.876C1115.295,638.235,1112.882,597.824,1109.821,557.988z"/>
			<path d="M1185.596,567.217c-20.197-2.846-41.313-5.474-63.316-7.892c3.147,39.657,5.627,79.885,7.439,120.576
				c22.343,1.421,43.778,2.965,64.279,4.638C1191.952,644.963,1189.15,605.82,1185.596,567.217z"/>
			<path d="M1249.84,577.622c-16.874-3.143-34.721-6.092-53.519-8.86c3.618,38.396,6.469,77.326,8.552,116.684
				c19.038,1.624,37.107,3.354,54.192,5.2C1256.82,652.542,1253.744,614.832,1249.84,577.622z"/>
			<path d="M1302.151,588.811c-13.499-3.335-27.979-6.492-43.423-9.497c3.945,36.983,7.054,74.459,9.324,112.324
				c15.588,1.759,30.197,3.608,43.824,5.565C1309.509,660.684,1306.266,624.518,1302.151,588.811z"/>
			<path d="M1342.709,600.421c-10.219-3.433-21.399-6.698-33.516-9.831c4.136,35.468,7.396,71.388,9.775,107.656
				c12.17,1.83,23.395,3.738,33.676,5.753C1350.227,669.125,1346.913,634.566,1342.709,600.421z"/>
			<path d="M1372.138,612.143c-7.14-3.454-15.211-6.738-24.162-9.906c4.209,33.899,7.526,68.207,9.945,102.823
				c8.924,1.844,16.968,3.755,24.123,5.788C1379.635,677.638,1376.331,644.705,1372.138,612.143z"/>
			<path d="M1391.361,623.723c-4.313-3.407-9.555-6.647-15.603-9.771c4.184,32.317,7.48,64.999,9.883,97.952
				c5.948,1.806,11.103,3.676,15.407,5.7C1398.694,686.039,1395.463,654.716,1391.361,623.723z"/>
			<path d="M107.277,499.275c-6.188,4.592-11.546,9.336-15.943,14.221c-6.106,29.598-11.38,59.703-15.812,90.226
				c4.322-3.688,9.584-7.211,15.657-10.609C95.694,561.335,101.063,530.025,107.277,499.275z"/>
			<path d="M135.135,482.27c-8.973,4.62-17.066,9.403-24.201,14.375c-6.226,30.963-11.605,62.494-16.129,94.503
				c7.138-3.743,15.214-7.31,24.171-10.752C123.51,547.128,128.9,514.387,135.135,482.27z"/>
			<path d="M173.55,465.415c-11.994,4.545-23.068,9.277-33.174,14.224c-6.226,32.327-11.608,65.288-16.137,98.787
				c10.202-3.722,21.368-7.265,33.468-10.666C162.156,533.022,167.439,498.874,173.55,465.415z"/>
			<path d="M223.116,449.144c-15.156,4.34-29.377,8.899-42.627,13.7c-6.077,33.662-11.331,68.024-15.755,102.986
				c13.461-3.615,27.904-7.04,43.307-10.298C212.276,519.383,217.303,483.887,223.116,449.144z"/>
			<path d="M284.021,433.961c-18.328,3.985-35.744,8.229-52.21,12.746c-5.75,34.935-10.722,70.631-14.912,106.991
				c16.813-3.407,34.596-6.603,53.325-9.604C274.102,506.637,278.702,469.893,284.021,433.961z"/>
			<path d="M355.924,420.415c-21.347,3.471-41.851,7.243-61.466,11.325c-5.224,36.105-9.742,73.031-13.55,110.679
				c20.11-3.084,41.135-5.931,63.039-8.552C347.314,495.25,351.307,457.401,355.924,420.415z"/>
			<path d="M437.852,409.067c-24.027,2.799-47.331,5.942-69.857,9.432c-4.49,37.134-8.372,75.139-11.647,113.92
				c23.17-2.641,47.145-5.018,71.877-7.135C430.932,485.7,434.14,446.93,437.852,409.067z"/>
			<path d="M528.158,400.437c-26.176,1.987-51.802,4.354-76.813,7.103c-3.554,37.981-6.626,76.874-9.219,116.589
				c25.788-2.082,52.217-3.876,79.223-5.381C523.264,478.43,525.533,438.964,528.158,400.437z"/>
			<path d="M624.562,394.955c-27.625,1.065-54.917,2.538-81.802,4.418c-2.443,38.609-4.554,78.16-6.337,118.568
				c27.767-1.426,55.96-2.542,84.503-3.35C621.949,473.809,623.16,433.903,624.562,394.955z"/>
			<path d="M724.279,392.908c-28.25,0.078-56.414,0.578-84.41,1.5c-1.203,38.99-2.243,78.94-3.122,119.767
				c28.942-0.699,58.058-1.079,87.267-1.138C724.089,472.083,724.177,432.013,724.279,392.908z"/>
			<path d="M824.239,394.408c-27.996-0.922-56.16-1.422-84.41-1.5c0.102,39.105,0.19,79.175,0.264,120.129
				c29.209,0.059,58.325,0.439,87.267,1.138C826.482,473.348,825.442,433.398,824.239,394.408z"/>
			<path d="M921.348,399.373c-26.885-1.88-54.177-3.353-81.802-4.418c1.401,38.948,2.613,78.854,3.635,119.635
				c28.544,0.808,56.736,1.925,84.503,3.35C925.902,477.533,923.791,437.982,921.348,399.373z"/>
			<path d="M1012.763,407.54c-25.011-2.748-50.637-5.116-76.813-7.103c2.625,38.527,4.894,77.993,6.809,118.31
				c27.007,1.505,53.435,3.299,79.223,5.381C1019.389,484.414,1016.317,445.521,1012.763,407.54z"/>
			<path d="M1096.113,418.499c-22.527-3.49-45.831-6.633-69.857-9.432c3.711,37.863,6.92,76.633,9.627,116.218
				c24.732,2.118,48.707,4.495,71.877,7.135C1104.485,493.639,1100.603,455.634,1096.113,418.499z"/>
			<path d="M1169.65,431.741c-19.615-4.082-40.119-7.855-61.466-11.325c4.617,36.986,8.61,74.835,11.977,113.453
				c21.904,2.62,42.929,5.468,63.04,8.552C1179.392,504.772,1174.874,467.846,1169.65,431.741z"/>
			<path d="M1232.296,446.707c-16.466-4.517-33.881-8.762-52.209-12.746c5.319,35.932,9.919,72.676,13.797,110.133
				c18.728,3.001,36.511,6.197,53.324,9.604C1243.018,517.338,1238.046,481.642,1232.296,446.707z"/>
			<path d="M1283.618,462.844c-13.249-4.801-27.471-9.361-42.626-13.7c5.813,34.743,10.84,70.239,15.075,106.388
				c15.402,3.259,29.845,6.683,43.307,10.298C1294.949,530.868,1289.695,496.507,1283.618,462.844z"/>
			<path d="M1323.731,479.639c-10.105-4.947-21.18-9.679-33.174-14.224c6.111,33.459,11.394,67.607,15.843,102.345
				c12.1,3.401,23.266,6.943,33.468,10.666C1335.339,544.927,1329.957,511.966,1323.731,479.639z"/>
			<path d="M1353.173,496.646c-7.134-4.972-15.228-9.755-24.2-14.375c6.235,32.117,11.624,64.857,16.159,98.126
				c8.957,3.441,17.033,7.008,24.171,10.752C1364.779,559.14,1359.399,527.608,1353.173,496.646z"/>
			<path d="M1372.774,513.495c-4.397-4.885-9.755-9.629-15.943-14.221c6.214,30.751,11.583,62.06,16.099,93.838
				c6.073,3.399,11.335,6.922,15.657,10.609C1384.154,573.198,1378.88,543.094,1372.774,513.495z"/>
			<path d="M133.186,391.585c-6.315,5.824-11.795,11.813-16.333,17.916c-7.937,27.687-15.095,56.037-21.463,84.967
				c4.419-5.122,9.799-10.109,16.011-14.939C117.869,449.542,125.135,420.198,133.186,391.585z"/>
			<path d="M161.055,370.243c-8.952,5.821-17.039,11.836-24.176,18.036c-8.062,28.782-15.337,58.308-21.814,88.487
				c7.135-5.213,15.23-10.237,24.203-15.092C145.741,430.448,153.007,399.94,161.055,370.243z"/>
			<path d="M198.881,349.175c-11.787,5.693-22.686,11.615-32.633,17.774c-8.032,29.862-15.284,60.547-21.745,91.965
				c10.081-5.186,21.13-10.153,33.093-14.923C183.924,411.556,191.022,379.92,198.881,349.175z"/>
			<path d="M247.143,328.916c-14.733,5.408-28.576,11.089-41.476,17.052c-7.811,30.903-14.865,62.709-21.155,95.325
				c13.195-5.032,27.357-9.814,42.448-14.365C232.964,393.352,239.693,360.651,247.143,328.916z"/>
			<path d="M305.945,310.083c-17.67,4.944-34.479,10.21-50.379,15.806c-7.365,31.881-14.018,64.74-19.953,98.486
				c16.376-4.733,33.696-9.181,51.921-13.357C293.013,376.395,299.15,342.721,305.945,310.083z"/>
			<path d="M374.906,293.339c-20.447,4.289-40.106,8.954-58.925,13.996c-6.67,32.769-12.695,66.583-18.074,101.357
				c19.489-4.275,39.858-8.226,61.062-11.861C363.714,361.292,369.025,326.767,374.906,293.339z"/>
			<path d="M453.076,279.352c-22.9,3.449-45.13,7.323-66.63,11.623c-5.717,33.539-10.879,68.183-15.491,103.85
				c22.363-3.653,45.495-6.944,69.342-9.874C444.102,348.656,448.36,313.432,453.076,279.352z"/>
			<path d="M538.907,268.741c-24.858,2.442-49.21,5.353-72.988,8.732c-4.515,34.167-8.591,69.484-12.233,105.88
				c24.813-2.876,50.235-5.353,76.2-7.432C532.573,339.059,535.578,303.311,538.907,268.741z"/>
			<path d="M630.295,262.012c-26.173,1.307-52.043,3.115-77.533,5.422c-3.098,34.629-5.894,70.442-8.394,107.373
				c26.661-1.967,53.724-3.507,81.116-4.622C626.917,332.967,628.519,296.889,630.295,262.012z"/>
			<path d="M724.695,259.502c-26.738,0.096-53.4,0.709-79.904,1.839c-1.525,34.908-2.9,71.019-4.131,108.272
				c27.756-0.964,55.678-1.487,83.685-1.569C724.45,330.694,724.566,294.494,724.695,259.502z"/>
			<path d="M819.316,261.341c-26.504-1.13-53.165-1.743-79.904-1.839c0.129,34.992,0.245,71.192,0.349,108.542
				c28.007,0.082,55.929,0.605,83.685,1.569C822.216,332.359,820.841,296.249,819.316,261.341z"/>
			<path d="M911.346,267.434c-25.49-2.307-51.359-4.115-77.533-5.422c1.776,34.878,3.378,70.955,4.811,108.173
				c27.391,1.114,54.455,2.655,81.116,4.622C917.24,337.876,914.444,302.063,911.346,267.434z"/>
			<path d="M998.188,277.473c-23.778-3.378-48.13-6.289-72.988-8.732c3.33,34.569,6.335,70.318,9.021,107.179
				c25.964,2.079,51.386,4.557,76.2,7.432C1006.779,346.957,1002.703,311.64,998.188,277.473z"/>
			<path d="M1077.661,290.975c-21.5-4.3-43.73-8.174-66.63-11.623c4.716,34.08,8.974,69.304,12.779,105.599
				c23.847,2.93,46.979,6.221,69.342,9.874C1088.541,359.157,1083.378,324.514,1077.661,290.975z"/>
			<path d="M1148.126,307.335c-18.818-5.042-38.478-9.707-58.925-13.996c5.881,33.429,11.193,67.953,15.937,103.492
				c21.204,3.635,41.574,7.586,61.062,11.861C1160.821,373.918,1154.797,340.103,1148.126,307.335z"/>
			<path d="M1208.541,325.889c-15.9-5.596-32.709-10.862-50.379-15.806c6.795,32.638,12.932,66.312,18.411,100.935
				c18.225,4.176,35.545,8.624,51.921,13.357C1222.559,390.628,1215.906,357.769,1208.541,325.889z"/>
			<path d="M1258.441,345.968c-12.9-5.964-26.742-11.644-41.476-17.052c7.45,31.735,14.179,64.436,20.183,98.013
				c15.091,4.551,29.254,9.333,42.448,14.365C1273.306,408.677,1266.251,376.871,1258.441,345.968z"/>
			<path d="M1297.859,366.949c-9.946-6.159-20.845-12.082-32.633-17.774c7.859,30.745,14.957,62.381,21.284,94.816
				c11.964,4.771,23.013,9.737,33.093,14.923C1313.143,427.496,1305.891,396.811,1297.859,366.949z"/>
			<path d="M1327.228,388.28c-7.136-6.201-15.224-12.215-24.176-18.036c8.048,29.697,15.314,60.204,21.788,91.432
				c8.973,4.854,17.068,9.879,24.203,15.092C1342.565,446.587,1335.29,417.062,1327.228,388.28z"/>
			<path d="M1347.255,409.5c-4.538-6.103-10.019-12.092-16.333-17.916c8.052,28.613,15.317,57.957,21.785,87.943
				c6.212,4.831,11.592,9.818,16.011,14.939C1362.35,465.537,1355.191,437.187,1347.255,409.5z"/>
			<path d="M165.263,292.722c-6.406,6.756-11.998,13.679-16.695,20.702c-9.549,25.343-18.387,51.485-26.497,78.344
				c4.567-6.29,10.068-12.468,16.402-18.481C146.679,345.615,155.614,318.731,165.263,292.722z"/>
			<path d="M193,268.175c-8.865,6.712-16.898,13.634-24.021,20.737c-9.654,26.13-18.595,53.147-26.807,80.966
				c7.136-6.386,15.218-12.587,24.16-18.591C174.507,322.679,183.401,294.945,193,268.175z"/>
			<path d="M229.958,244.063c-11.48,6.524-22.119,13.305-31.848,20.334c-9.573,26.885-18.443,54.746-26.598,83.497
				c9.912-6.34,20.771-12.44,32.512-18.305C211.98,300.088,220.627,271.551,229.958,244.063z"/>
			<path d="M276.493,220.991c-14.172,6.162-27.51,12.634-39.957,19.413c-9.267,27.594-17.855,56.251-25.758,85.883
				c12.827-6.135,26.589-11.982,41.232-17.548C259.525,278.416,267.687,249.138,276.493,220.991z"/>
			<path d="M332.62,199.64c-16.831,5.604-32.868,11.576-48.054,17.912c-8.7,28.243-16.764,57.629-24.189,88.073
				c15.783-5.753,32.467-11.169,50-16.253C317.207,258.313,324.62,228.376,332.62,199.64z"/>
			<path d="M397.919,180.737c-19.328,4.841-37.937,10.107-55.766,15.796c-7.849,28.819-15.122,58.85-21.822,90.015
				c18.656-5.181,38.142-9.974,58.405-14.382C384.627,240.475,391.019,209.976,397.919,180.737z"/>
			<path d="M471.478,165.003c-21.519,3.878-42.431,8.236-62.673,13.071c-6.704,29.309-12.913,59.886-18.637,91.664
				c21.292-4.415,43.304-8.394,65.975-11.936C460.853,225.602,465.961,194.651,471.478,165.003z"/>
			<path d="M551.871,153.101c-23.259,2.738-46.063,6.003-68.342,9.792c-5.28,29.701-10.167,60.713-14.675,92.979
				c23.529-3.468,47.624-6.456,72.215-8.963C544.387,214.335,547.984,183.051,551.871,153.101z"/>
			<path d="M637.199,145.568c-24.422,1.463-48.573,3.486-72.378,6.069c-3.616,29.987-6.961,61.311-10.047,93.931
				c25.209-2.367,50.792-4.223,76.673-5.564C633.214,207.197,635.129,175.706,637.199,145.568z"/>
			<path d="M725.197,142.761c-24.918,0.107-49.77,0.793-74.478,2.056c-1.777,30.157-3.421,61.668-4.938,94.498
				c26.204-1.159,52.564-1.789,78.998-1.887C724.907,204.536,725.046,172.97,725.197,142.761z"/>
			<path d="M813.389,144.818c-24.707-1.263-49.56-1.949-74.478-2.056c0.15,30.208,0.289,61.775,0.418,94.667
				c26.434,0.098,52.794,0.727,78.998,1.887C816.81,206.486,815.166,174.975,813.389,144.818z"/>
			<path d="M899.286,151.637c-23.805-2.582-47.956-4.606-72.378-6.069c2.071,30.138,3.985,61.629,5.752,94.436
				c25.881,1.341,51.464,3.196,76.673,5.564C906.248,212.948,902.902,181.623,899.286,151.637z"/>
			<path d="M980.579,162.893c-22.279-3.789-45.083-7.054-68.342-9.792c3.887,29.95,7.484,61.234,10.801,93.808
				c24.592,2.507,48.687,5.495,72.215,8.963C990.746,223.606,985.859,192.594,980.579,162.893z"/>
			<path d="M1055.303,178.074c-20.242-4.835-41.154-9.193-62.673-13.071c5.518,29.647,10.626,60.599,15.336,92.799
				c22.671,3.542,44.683,7.521,65.975,11.936C1068.216,237.96,1062.007,207.383,1055.303,178.074z"/>
			<path d="M1121.955,196.533c-17.829-5.689-36.438-10.955-55.766-15.796c6.9,29.239,13.292,59.739,19.183,91.429
				c20.263,4.408,39.75,9.201,58.405,14.382C1137.076,255.383,1129.803,225.352,1121.955,196.533z"/>
			<path d="M1179.542,217.552c-15.186-6.336-31.223-12.308-48.054-17.912c8,28.736,15.413,58.673,22.243,89.733
				c17.533,5.084,34.217,10.5,50,16.253C1196.306,275.182,1188.242,245.796,1179.542,217.552z"/>
			<path d="M1227.572,240.404c-12.447-6.779-25.786-13.251-39.957-19.413c8.806,28.147,16.968,57.425,24.483,87.749
				c14.644,5.566,28.406,11.413,41.232,17.548C1245.428,296.655,1236.839,267.998,1227.572,240.404z"/>
			<path d="M1265.998,264.397c-9.729-7.028-20.367-13.81-31.848-20.334c9.33,27.488,17.978,56.025,25.933,85.525
				c11.74,5.865,22.6,11.965,32.512,18.305C1284.441,319.143,1275.571,291.281,1265.998,264.397z"/>
			<path d="M1295.129,288.912c-7.123-7.103-15.156-14.025-24.021-20.737c9.599,26.77,18.493,54.504,26.669,83.113
				c8.942,6.004,17.024,12.205,24.16,18.591C1313.724,342.059,1304.783,315.042,1295.129,288.912z"/>
			<path d="M1315.54,313.424c-4.697-7.023-10.29-13.946-16.695-20.702c9.649,26.009,18.584,52.893,26.79,80.565
				c6.334,6.013,11.836,12.192,16.402,18.481C1333.927,364.909,1325.089,338.767,1315.54,313.424z"/>
			<path d="M202.56,204.106c-6.439,7.357-12.108,14.881-16.946,22.502c-10.913,22.666-21.191,46.241-30.813,70.644
				c4.725-7.154,10.334-14.208,16.75-21.096C181.242,251.208,191.585,227.163,202.56,204.106z"/>
			<path d="M229.942,177.569c-8.693,7.264-16.606,14.747-23.672,22.408c-10.971,23.126-21.311,47.254-31.002,72.299
				c7.117-7.228,15.134-14.276,23.975-21.111C208.846,225.612,219.085,201.051,229.942,177.569z"/>
			<path d="M265.705,151.652c-11.061,7.016-21.342,14.306-30.779,21.846c-10.819,23.543-21.021,48.18-30.591,73.824
				c9.683-7.146,20.265-14.044,31.679-20.68C245.307,200.536,255.207,175.511,265.705,151.652z"/>
			<path d="M310.081,126.991c-13.471,6.586-26.18,13.505-38.068,20.741c-10.417,23.913-20.242,49.005-29.465,75.19
				c12.355-6.886,25.591-13.464,39.648-19.725C290.928,176.606,300.224,151.177,310.081,126.991z"/>
			<path d="M363.002,104.29c-15.829,5.957-30.94,12.306-45.274,19.038c-9.732,24.231-18.908,49.718-27.529,76.378
				c15.044-6.432,30.927-12.494,47.591-18.184C345.686,154.518,354.087,128.749,363.002,104.29z"/>
			<path d="M424.022,84.286c-18.024,5.12-35.404,10.693-52.079,16.71c-8.74,24.497-16.977,50.313-24.719,77.373
				c17.635-5.77,36.037-11.112,55.146-16.023C409.15,135.008,416.362,108.968,424.022,84.286z"/>
			<path d="M492.278,67.704c-19.935,4.084-39.332,8.677-58.128,13.771c-7.438,24.712-14.44,50.789-21.023,78.17
				c19.997-4.901,40.653-9.318,61.903-13.249C480.43,118.804,486.173,92.558,492.278,67.704z"/>
			<path d="M566.485,55.201c-21.443,2.875-42.486,6.305-63.062,10.284c-5.841,24.877-11.332,51.149-16.497,78.773
				c21.989-3.838,44.493-7.146,67.443-9.92C558.162,106.568,562.193,80.179,566.485,55.201z"/>
			<path d="M644.97,47.305c-22.446,1.532-44.656,3.653-66.558,6.359c-3.992,24.993-7.741,51.398-11.267,79.189
				c23.48-2.615,47.3-4.665,71.384-6.146C640.544,98.832,642.687,72.36,644.97,47.305z"/>
			<path d="M725.76,44.367c-22.871,0.112-45.687,0.83-68.372,2.152c-1.96,25.062-3.799,51.542-5.529,79.429
				c24.362-1.279,48.865-1.974,73.433-2.082C725.439,95.952,725.595,69.449,725.76,44.367z"/>
			<path d="M806.719,46.52c-22.685-1.322-45.501-2.04-68.372-2.152c0.166,25.082,0.321,51.585,0.467,79.499
				c24.568,0.108,49.072,0.803,73.433,2.082C810.518,98.062,808.679,71.581,806.719,46.52z"/>
			<path d="M885.696,53.665c-21.902-2.706-44.112-4.827-66.558-6.359c2.283,25.054,4.426,51.527,6.441,79.403
				c24.084,1.481,47.904,3.531,71.384,6.146C893.437,105.063,889.688,78.658,885.696,53.665z"/>
			<path d="M960.684,65.485c-20.575-3.979-41.619-7.409-63.062-10.284c4.292,24.978,8.324,51.367,12.116,79.137
				c22.949,2.774,45.453,6.082,67.443,9.92C972.016,116.634,966.524,90.361,960.684,65.485z"/>
			<path d="M1029.957,81.475c-18.796-5.094-38.193-9.687-58.128-13.771c6.106,24.854,11.848,51.1,17.249,78.692
				c21.25,3.931,41.906,8.348,61.903,13.249C1044.397,132.264,1037.395,106.187,1029.957,81.475z"/>
			<path d="M1092.166,100.995c-16.675-6.017-34.056-11.59-52.079-16.71c7.66,24.682,14.872,50.723,21.653,78.06
				c19.109,4.91,37.51,10.253,55.146,16.023C1109.143,151.308,1100.906,125.493,1092.166,100.995z"/>
			<path d="M1146.38,123.327c-14.334-6.732-29.445-13.081-45.274-19.038c8.914,24.46,17.316,50.228,25.212,77.232
				c16.664,5.689,32.547,11.752,47.591,18.184C1165.289,173.045,1156.112,147.559,1146.38,123.327z"/>
			<path d="M1192.094,147.732c-11.887-7.236-24.597-14.155-38.068-20.741c9.858,24.186,19.153,49.615,27.885,76.206
				c14.057,6.262,27.293,12.839,39.648,19.725C1212.336,196.737,1202.511,171.645,1192.094,147.732z"/>
			<path d="M1229.182,173.498c-9.437-7.54-19.718-14.83-30.779-21.846c10.497,23.859,20.398,48.884,29.691,74.99
				c11.414,6.636,21.996,13.534,31.679,20.68C1250.203,221.678,1240.001,197.041,1229.182,173.498z"/>
			<path d="M1257.837,199.978c-7.066-7.661-14.979-15.145-23.672-22.408c10.858,23.481,21.096,48.043,30.698,73.597
				c8.841,6.835,16.859,13.883,23.975,21.111C1279.149,247.231,1268.808,223.103,1257.837,199.978z"/>
			<path d="M1278.494,226.609c-4.838-7.621-10.507-15.145-16.946-22.502c10.975,23.057,21.318,47.102,31.009,72.051
				c6.416,6.888,12.025,13.942,16.75,21.096C1299.685,272.85,1289.407,249.274,1278.494,226.609z"/>
		</g>
	</g>
</g>
</svg>
